<svg width="25" height="25" viewBox="0 0 25 25" fill="none" xmlns="http://www.w3.org/2000/svg">
<rect x="0.348389" y="0.260742" width="24" height="24" rx="4" fill="#083A3C"/>
<path d="M4.72942 4.31047C4.72942 4.00687 4.9737 3.76074 5.27504 3.76074H18.4679C19.2962 3.76074 19.9677 4.43729 19.9677 5.27185V6.6355C19.9677 7.4145 19.6691 8.16342 19.1343 8.72599L13.7012 14.4412V7.84937H8.24183C6.30198 7.84937 4.72942 6.26495 4.72942 4.31047Z" fill="#41D87B"/>
<path d="M19.9673 20.211C19.9673 20.5146 19.723 20.7607 19.4217 20.7607H6.22881C5.40049 20.7607 4.729 20.0842 4.729 19.2496V17.886C4.729 17.107 5.02755 16.3581 5.56236 15.7955L10.9955 10.0803V16.6721H16.4549C18.3947 16.6721 19.9673 18.2565 19.9673 20.211Z" fill="#41D87B"/>
</svg>
